<?xml version="1.0" encoding="UTF-8"?>
<svg id="Layer_1" xmlns="http://www.w3.org/2000/svg" version="1.1" viewBox="0 0 396.13 41.35">
  <!-- Generator: Adobe Illustrator 29.5.1, SVG Export Plug-In . SVG Version: 2.1.0 Build 141)  -->
  <defs>
    <style>
      .st0 {
        fill: #fff;
      }
    </style>
  </defs>
  <path class="st0" d="M17.62,28.41c0,1.63-.37,2.91-1.1,3.81-.74.9-1.91,1.36-3.48,1.36s-2.73-.43-3.57-1.27-1.27-2.3-1.27-4.33v-2.73H0v2.95c0,3.93,1.14,7.06,3.38,9.32,2.24,2.26,5.68,3.4,10.21,3.4,2.41,0,4.52-.38,6.27-1.14s3.17-1.82,4.23-3.16c1.66-1.98,2.5-4.67,2.5-7.99V.43h-8.96v27.98h-.01Z"/>
  <path class="st0" d="M43.63.43l-14.32,39.74h8.94l2.47-7.63h14.67l.03.08,2.5,7.55h9.43L52.97.43h-9.35,0ZM42.8,26.22l.05-.15,2.47-7.47c.32-.96.64-2.07.94-3.29.3-1.23.6-2.4.89-3.47.28-1.21.57-2.51.86-3.86l.02-.1h.3l.02.1c.18,1.02.4,2.12.65,3.27.21.99.48,2.14.8,3.41.33,1.29.71,2.62,1.13,3.94l2.46,7.62h-10.59Z"/>
  <rect class="st0" x="71.83" y=".43" width="8.96" height="39.74"/>
  <path class="st0" d="M116.35,4.1c-2.44-2.44-6.01-3.67-10.61-3.67h-17.67v39.74h9.07v-12.47h9.68c2.06,0,3.93-.31,5.55-.93,1.63-.62,3.03-1.5,4.18-2.61s2.04-2.46,2.66-4.01c.64-1.62.93-4.3.93-6.1,0-2.13-.37-4.28-.99-5.77-.65-1.57-1.59-2.97-2.79-4.18h-.01ZM109.55,19.14c-1.04,1.03-2.55,1.54-4.51,1.54h-7.91V7.99h7.96c1.92,0,3.42.49,4.46,1.45.97.9,1.57,2.66,1.57,4.61,0,1.77-.54,4.09-1.57,5.09Z"/>
  <path class="st0" d="M148.67,26.43c0,2.2-.62,3.99-1.86,5.32-1.24,1.33-3.09,2-5.51,2-2.6,0-4.53-.65-5.75-1.92-1.22-1.27-1.83-3.03-1.83-5.23V.43h-8.9v25.94c0,4.67,1.4,8.3,4.18,10.79,2.77,2.49,6.91,3.75,12.31,3.75s9.42-1.27,12.17-3.78,4.15-6.13,4.15-10.77V.43h-8.96v26h0Z"/>
  <path class="st0" d="M189.57,26.47c1.46-.64,2.62-1.39,3.55-2.3,1.15-1.11,2.04-2.46,2.66-4.01.64-1.61.93-4.3.93-6.1,0-2.13-.37-4.28-.98-5.77-.65-1.57-1.59-2.97-2.79-4.18-2.44-2.44-6.01-3.67-10.61-3.67h-17.67v39.74h9.06v-12.47h7.02l.04.05,8.31,12.41h9.7l-9.34-13.65.13-.05h-.01ZM186.14,19.15c-1.04,1.02-2.55,1.54-4.51,1.54h-7.91V7.99h7.96c1.92,0,3.42.49,4.46,1.45.96.9,1.57,2.66,1.57,4.61,0,1.77-.54,4.09-1.56,5.1h-.01Z"/>
  <polygon class="st0" points="228.5 .7 219.6 .7 219.6 40.44 244.6 40.44 244.6 32.83 228.5 32.83 228.5 .7"/>
  <rect class="st0" x="250.44" y=".7" width="8.96" height="39.74"/>
  <rect class="st0" x="304.27" y=".7" width="8.96" height="39.74"/>
  <path class="st0" d="M344.79,16.75c0,1.14.02,2.41.05,3.76.03,1.34.09,2.62.16,3.81.07,1.37.16,2.76.27,4.14v.13h-.29l-.03-.07-1.88-3.76c-.53-1.06-1.12-2.22-1.74-3.41-.62-1.18-1.24-2.31-1.85-3.35l-10.5-17.3h-9.17v39.74h8.53v-15.95c0-1.12-.03-2.38-.08-3.76-.05-1.35-.12-2.63-.19-3.81l-.22-4.32h.3l.03.07c.6,1.27,1.23,2.55,1.88,3.81.56,1.12,1.15,2.29,1.77,3.49.65,1.25,1.28,2.39,1.88,3.38l10.39,17.08h9.22V.7h-8.53v16.06h0Z"/>
  <path class="st0" d="M379.66,19.29v6.59h8.06v.28c0,1.02-.22,2.02-.65,2.98-.44.96-1.05,1.81-1.83,2.53s-1.75,1.32-2.88,1.77-2.42.68-3.83.68c-1.66,0-3.17-.34-4.48-1.01-1.32-.67-2.46-1.61-3.37-2.8-.92-1.19-1.64-2.61-2.14-4.23-.5-1.61-.76-3.41-.76-5.36s.22-3.63.65-5.27c.43-1.63,1.1-3.06,1.98-4.25.89-1.2,2-2.15,3.32-2.83,1.32-.69,2.91-1.03,4.7-1.03,2.31,0,4.15.55,5.45,1.61,1.28,1.05,2.18,2.33,2.7,3.81h8.91c-.36-1.82-.99-3.52-1.87-5.06-.9-1.58-2.1-2.95-3.54-4.08-1.45-1.13-3.19-2.03-5.18-2.67-1.99-.64-4.26-.96-6.73-.96-2.62,0-4.99.37-7.05,1.12-2.06.75-3.91,1.81-5.5,3.15-2.23,1.88-3.95,4.26-5.13,7.08-1.17,2.82-1.76,5.97-1.76,9.38,0,3.05.45,5.89,1.33,8.42.89,2.53,2.22,4.77,3.95,6.65,1.62,1.73,3.59,3.1,5.84,4.08,2.25.97,4.83,1.46,7.67,1.46,2.44,0,4.69-.49,6.66-1.46,1.97-.97,3.57-2.58,4.73-4.76l.03-.06h.33v.1l.75,5.27h6.12v-21.15h-16.48v.02Z"/>
  <polygon class="st0" points="290.47 .7 281.76 29.16 273.02 .7 272.99 .7 263.73 .7 276.87 40.44 286.32 40.44 299.46 .7 290.49 .7 290.47 .7"/>
</svg>